#!OML:ASF H:\Punching\Project 1\Capture day 1\Session 1\female.ASF
:FULLY-SPECIFIED
:DEGREES
1095
root -1.88586 10.4225 4.65919 14.3313 23.7135 2.44072
lowerback 24.6184 3.73967 5.66094
upperback 0.126469 6.65056 0.81231
thorax -13.0988 2.69583 -4.6124
lowerneck -11.5981 -2.6899 5.90042
upperneck 10.6011 -4.77204 1.43408
head 4.99509 -1.9821 -0.863135
rclavicle -1.35174e-014 2.38542e-014
rhumerus 26.5593 14.5814 -76.0984
rradius 138.558
rwrist -45.3657
rhand -19.4033 -3.5201
rfingers 7.12502
rthumb 6.91586 -33.3871
lclavicle -1.35174e-014 2.38542e-014
lhumerus 5.08686 -24.8209 81.0811
lradius 135.729
lwrist 27.3464
lhand -10.9099 26.1029
lfingers 7.12502
lthumb 15.1072 55.5316
rfemur -82.4718 -18.242 10.2569
rtibia 107.748
rfoot -31.1519 -10.1307
rtoes -10.0275
lfemur -61.4 4.64605 13.5287
ltibia 105.398
lfoot -27.602 -27.6147
ltoes -40.9576
1096
root -1.85521 10.366 4.64522 14.0164 22.1956 1.86179
lowerback 24.632 3.4818 5.44615
upperback 0.16538 6.22522 0.641021
thorax -13.1063 2.50899 -4.54471
lowerneck -11.6058 -1.82733 6.78721
upperneck 11.1598 -3.71583 0.90877
head 5.16953 -1.44811 -1.09723
rclavicle -1.43125e-014 -1.11319e-014
rhumerus 26.127 15.6085 -76.726
rradius 138.485
rwrist -44.6348
rhand -19.211 -3.41555
rfingers 7.12502
rthumb 7.10152 -33.2764
lclavicle -1.43125e-014 -1.11319e-014
lhumerus 6.43488 -24.4797 80.0307
lradius 134.277
lwrist 26.6741
lhand -11.9886 26.4139
lfingers 7.12502
lthumb 14.068 55.9178
rfemur -83.3465 -17.4315 10.8844
rtibia 107.883
rfoot -30.93 -9.4354
rtoes -10.3359
lfemur -60.8144 5.1365 14.1871
ltibia 106.375
lfoot -27.8746 -27.2039
ltoes -41.5919
1097
root -1.82077 10.3105 4.632 13.6968 20.5599 1.26058
lowerback 24.6062 3.21055 5.19994
upperback 0.215946 5.77147 0.476628
thorax -13.0844 2.31351 -4.43717
lowerneck -11.5595 -0.914246 7.72866
upperneck 11.7154 -2.58393 0.314933
head 5.35104 -0.880198 -1.35393
rclavicle -3.97569e-015 -3.49861e-014
rhumerus 25.6936 16.5692 -77.2309
rradius 138.357
rwrist -43.8402
rhand -19.0814 -3.34242
rfingers 7.12502
rthumb 7.22653 -33.199
lclavicle -3.97569e-015 -3.49861e-014
lhumerus 7.98269 -23.8523 78.8888
lradius 132.554
lwrist 26.0973
lhand -12.7049 26.7411
lfingers 7.12502
lthumb 13.3777 56.2916
rfemur -84.2151 -16.5745 11.5594
rtibia 107.967
rfoot -30.6681 -8.68118
rtoes -10.6092
lfemur -60.1197 5.65713 14.8542
ltibia 107.359
lfoot -28.1331 -26.7475
ltoes -42.1976
1098
root -1.78306 10.2563 4.61955 13.3752 18.825 0.646995
lowerback 24.5512 2.92285 4.92375
upperback 0.274729 5.28665 0.316529
thorax -13.0413 2.10709 -4.29398
lowerneck -11.4372 0.0438405 8.73017
upperneck 12.2556 -1.37969 -0.344858
head 5.53588 -0.279995 -1.63315
rclavicle 5.20816e-014 1.03368e-014
rhumerus 25.2697 17.4702 -77.626
rradius 138.185
rwrist -43.081
rhand -19.0013 -3.30694
rfingers 7.12502
rthumb 7.30393 -33.1609
lclavicle 5.20816e-014 1.03368e-014
lhumerus 9.7265 -22.9198 77.6851
lradius 130.546
lwrist 25.6507
lhand -13.0605 27.1577
lfingers 7.12502
lthumb 13.0349 56.7304
rfemur -85.0569 -15.6753 12.2676
rtibia 107.999
rfoot -30.368 -7.88059
rtoes -10.8113
lfemur -59.3248 6.19655 15.5173
ltibia 108.339
lfoot -28.3619 -26.2375
ltoes -42.7776
1099
root -1.7431 10.2039 4.60803 13.0528 17.0112 0.0300005
lowerback 24.4778 2.62123 4.61804
upperback 0.342615 4.77502 0.15904
thorax -12.9804 1.8911 -4.11983
lowerneck -11.2392 1.03281 9.7772
upperneck 12.7736 -0.119354 -1.04827
head 5.7254 0.345591 -1.92664
rclavicle 2.18663e-014 -7.15625e-015
rhumerus 24.8699 18.3004 -77.9159
rradius 137.996
rwrist -42.4776
rhand -18.9472 -3.31804
rfingers 7.12502
rthumb 7.3561 -33.1702
lclavicle 2.18663e-014 -7.15625e-015
lhumerus 11.6582 -21.719 76.4419
lradius 128.242
lwrist 25.3436
lhand -13.1539 27.7023
lfingers 7.12502
lthumb 12.9448 57.2808
rfemur -85.8532 -14.7368 12.9994
rtibia 107.982
rfoot -30.0299 -7.04712
rtoes -10.9091
lfemur -58.4362 6.74364 16.1694
ltibia 109.303
lfoot -28.5232 -25.7015
ltoes -43.2869
1100
root -1.70174 10.1534 4.59727 12.7351 15.1333 -0.578903
lowerback 24.4067 2.31033 4.28186
upperback 0.40773 4.24343 -0.00220649
thorax -12.9249 1.66689 -3.92582
lowerneck -10.9475 2.03617 10.8619
upperneck 13.2618 1.17883 -1.77537
head 5.91611 0.988945 -2.228
rclavicle 2.78299e-014 -1.27222e-014
rhumerus 24.4769 19.0501 -78.1289
rradius 137.822
rwrist -42.1289
rhand -18.8937 -3.37066
rfingers 7.12502
rthumb 7.40774 -33.221
lclavicle 2.78299e-014 -1.27222e-014
lhumerus 13.7498 -20.3159 75.1751
lradius 125.629
lwrist 25.1758
lhand -13.1367 28.3756
lfingers 7.12502
lthumb 12.9614 57.953
rfemur -86.597 -13.7615 13.746
rtibia 107.919
rfoot -29.6521 -6.2015
rtoes -10.9129
lfemur -57.4653 7.29998 16.7951
ltibia 110.242
lfoot -28.6191 -25.1289
ltoes -43.7326
1101
root -1.65901 10.1052 4.58788 12.4236 13.2109 -1.15302
lowerback 24.3363 1.99362 3.9029
upperback 0.477831 3.69206 -0.172041
thorax -12.8643 1.43566 -3.70988
lowerneck -10.5808 3.04065 11.9661
upperneck 13.7198 2.49791 -2.50654
head 6.11163 1.6428 -2.52912
rclavicle -1.35174e-014 7.15625e-015
rhumerus 24.0977 19.7137 -78.2786
rradius 137.69
rwrist -42.0831
rhand -18.8193 -3.457
rfingers 7.12502
rthumb 7.47952 -33.3048
lclavicle -1.35174e-014 7.15625e-015
lhumerus 15.9985 -18.7712 73.8919
lradius 122.671
lwrist 25.1111
lhand -13.1732 29.1274
lfingers 7.12502
lthumb 12.9262 58.707
rfemur -87.2753 -12.784 14.4783
rtibia 107.82
rfoot -29.2509 -5.32422
rtoes -10.7822
lfemur -56.419 7.83088 17.3572
ltibia 111.15
lfoot -28.6524 -24.498
ltoes -44.0925
1102
root -1.61584 10.0592 4.58027 12.1177 11.2585 -1.67641
lowerback 24.2779 1.67865 3.46896
upperback 0.550781 3.12731 -0.356443
thorax -12.8057 1.2004 -3.4746
lowerneck -10.1485 4.0319 13.082
upperneck 14.1449 3.81815 -3.22357
head 6.31169 2.29879 -2.82409
rclavicle -1.92821e-014 -1.66979e-014
rhumerus 23.6995 20.3097 -78.3999
rradius 137.627
rwrist -42.2742
rhand -18.6682 -3.54215
rfingers 7.12502
rthumb 7.62541 -33.3847
lclavicle -1.92821e-014 -1.66979e-014
lhumerus 18.3981 -17.146 72.5911
lradius 119.318
lwrist 25.0847
lhand -13.3765 29.893
lfingers 7.12502
lthumb 12.7302 59.485
rfemur -87.8783 -11.8086 15.1836
rtibia 107.698
rfoot -28.8397 -4.46538
rtoes -10.6355
lfemur -55.2988 8.33131 17.8329
ltibia 112.02
lfoot -28.6265 -23.7974
ltoes -44.3431
1103
root -1.57289 10.0157 4.57507 11.8116 9.28655 -2.14254
lowerback 24.2344 1.37148 2.97374
upperback 0.628338 2.55552 -0.555226
thorax -12.7474 0.964407 -3.21807
lowerneck -9.65774 4.99837 14.1888
upperneck 14.5306 5.12519 -3.909
head 6.51311 2.95023 -3.1047
rclavicle -4.33475e-014 6.48535e-015
rhumerus 23.2993 20.8304 -78.5009
rradius 137.624
rwrist -42.6513
rhand -18.4548 -3.62781
rfingers 7.12502
rthumb 7.83137 -33.4628
lclavicle -4.33475e-014 6.48535e-015
lhumerus 20.9347 -15.4736 71.2822
lradius 115.495
lwrist 24.9383
lhand -13.7491 30.5859
lfingers 7.12502
lthumb 12.371 60.1999
rfemur -88.3939 -10.8344 15.8468
rtibia 107.563
rfoot -28.4405 -3.63563
rtoes -10.503
lfemur -54.0981 8.80829 18.2091
ltibia 112.847
lfoot -28.5734 -23.0047
ltoes -44.505
1104
root -1.53162 9.97414 4.57163 11.5203 7.337 -2.53978
lowerback 24.2011 1.06799 2.40874
upperback 0.702254 1.96949 -0.764819
thorax -12.6956 0.724747 -2.92872
lowerneck -9.11479 5.93044 15.272
upperneck 14.8737 6.40668 -4.55387
head 6.71258 3.59112 -3.36657
rclavicle -7.35503e-015 -1.41137e-014
rhumerus 22.8768 21.3094 -78.6065
rradius 137.659
rwrist -43.0304
rhand -18.1636 -3.6579
rfingers 7.12502
rthumb 8.11241 -33.4822
lclavicle -7.35503e-015 -1.41137e-014
lhumerus 23.6131 -13.7672 69.9676
lradius 111.075
lwrist 24.4389
lhand -14.2186 31.1465
lfingers 7.12502
lthumb 11.9183 60.7872
rfemur -88.8445 -9.88971 16.4532
rtibia 107.432
rfoot -28.0782 -2.82446
rtoes -10.4019
lfemur -52.8738 9.25892 18.4769
ltibia 113.631
lfoot -28.4569 -22.1504
ltoes -44.5207
1105
root -1.49317 9.93432 4.56956 11.2457 5.447 -2.86317
lowerback 24.1814 0.765647 1.77504
upperback 0.775965 1.36659 -0.982145
thorax -12.6463 0.480406 -2.60263
lowerneck -8.5678 6.82288 16.3076
upperneck 15.1835 7.64798 -5.139
head 6.91602 4.21423 -3.59974
rclavicle -3.00165e-014 -5.56597e-015
rhumerus 22.4872 21.7266 -78.6981
rradius 137.679
rwrist -43.3038
rhand -17.8445 -3.62274
rfingers 7.12502
rthumb 8.42037 -33.4349
lclavicle -3.00165e-014 -5.56597e-015
lhumerus 26.4401 -12.0426 68.6634
lradius 105.913
lwrist 23.2583
lhand -14.6724 31.5297
lfingers 7.12502
lthumb 11.4807 61.1953
rfemur -89.2404 -8.99299 16.9901
rtibia 107.317
rfoot -27.7641 -2.02037
rtoes -10.3356
lfemur -51.6625 9.68305 18.6349
ltibia 114.37
lfoot -28.2615 -21.2523
ltoes -44.3901
